<svg xmlns="http://www.w3.org/2000/svg" width="400" height="400" viewBox="0 0 400 400">
    <defs>
        <clipPath id="clip-path">
            <path id="Rectangle_7770" fill="none" d="M0 0H400V400H0z" transform="translate(-1037.613 -23709.613)"/>
        </clipPath>
        <style>
            .cls-4{fill:#9e9e9e}.cls-5{fill:#cbcbcb}.cls-6{fill:#757575}.cls-8{fill:#ffe4dd}.cls-9{fill:#e6f4e9}.cls-11{fill:#d4d4d4}.cls-12{fill:#c6d3d8}.cls-13{fill:#fff}.cls-15{fill:#38527c}.cls-16{fill:#d39d79}.cls-17{fill:#e8ac8b}.cls-19{fill:#ffd16d}.cls-21{fill:#ffc031}.cls-23{fill:#919191}.cls-27{fill:#db6f5d}.cls-28{fill:#ededed}.cls-29{fill:#dbd9d9}
        </style>
    </defs>
    <g id="Graphic_1" clip-path="url(#clip-path)" transform="translate(1037.613 23709.613)">
        <g id="Layer_2" transform="translate(-1037.613 -23656.539)">
            <g id="Group_77393">
                <path id="Path_84793" fill="#c3e8f6" d="M401.82 260.41c-11.82 57.876-72.55 65.321-121.876 57.681-63.373 6.125-130.4 16.666-185.791-24C-34.022 226.342-27.1-22.216 155.1 43.062c28.981 9.588 52.833 35.972 81.576 45.127C369.311 79.077 424.7 121.478 401.82 260.41z" transform="translate(-6.839 -32.24)"/>
                <g id="Group_77370" transform="translate(48.398 179.8)">
                    <g id="Group_77369">
                        <path id="Rectangle_7767" d="M0 0H281.587V11.298H0z" class="cls-4" transform="rotate(180 147.578 5.649)"/>
                        <g id="Group_77367" transform="translate(17.77 .515)">
                            <path id="Path_84794" d="M65.832 202.818c-1.623-.931-3.182-1.818-4.74-2.814-1.623-.931-3.225-1.926-4.783-2.922l-15.3-70.754-1.667-7.705 4.112-1.558 3.846-1.515 2.3 10.779z" class="cls-4" transform="translate(-35.163 -115.55)"/>
                            <path id="Path_84795" d="M63.339 200c-1.623-.931-3.225-1.926-4.783-2.922-1.623-1.1-3.225-2.143-4.848-3.225l-14.631-67.524-.822-3.809-.628-2.965-.216-.931 7.965-3.073.3 1.515 1.97 9.264z" class="cls-5" transform="translate(-37.41 -115.55)"/>
                        </g>
                        <g id="Group_77368" transform="translate(0 2.788)">
                            <path id="Path_84796" d="M44.113 118.841l-.887 6-6.775 45.82q-1.883-1.786-3.7-3.636c-1.19-1.19-2.4-2.4-3.55-3.636l6.775-46.534 3.9 1 2.857.736z" class="cls-5" transform="translate(-29.2 -116.309)"/>
                            <path id="Path_84797" d="M46.3 118.613l-.411 2.705-.519 3.809-7.229 49.153c-1.19-1.1-2.4-2.186-3.593-3.333q-1.883-1.786-3.7-3.636l7.142-49.2.216-1.515 2.662.671 4.415 1.1z" class="cls-4" transform="translate(-27.279 -116.6)"/>
                        </g>
                    </g>
                </g>
                <g id="Group_77384" transform="translate(77.92 53.006)">
                    <g id="Group_77383">
                        <path id="Path_84798" d="M96.625 122.472c-7.337.39-14.7.822-22.033 1.277q-.065-13.668-.152-27.336 11.136-.325 22.272-.563-.033 13.311-.087 26.622z" class="cls-4" transform="translate(-6.045 -11.179)"/>
                        <path id="Path_84799" d="M96.692 115.442q-11.071.422-22.142.974l-.13-23.96c7.446-.151 14.891-.281 22.358-.346-.043 7.77-.065 15.562-.086 23.332z" class="cls-6" transform="translate(-6.069 -15.534)"/>
                        <path id="Path_84800" d="M198.936 150.1q-76.587.487-152.979 5.757Q44.4 106.284 42.84 56.73q79.541 2.825 158.693 10.605l-2.597 82.765z" class="cls-4" transform="translate(-42.84 -56.73)"/>
                        <path id="Path_84801" d="M128.61 118.064q-31.914 1.818-63.72 4.48v-.022a12.865 12.865 0 0 1 11.731-13.095q20.1-1.3 40.214-2.251c6.58-.3 11.861 4.589 11.774 10.887z" class="cls-6" transform="translate(-17.166 1.994)"/>
                        <path id="Path_84802" fill="#f7fbfc" d="M193.9 145.658q-73.405.292-146.681 5L44.43 58.26q76.067 2.532 151.789 9.653-1.137 38.894-2.319 77.745z" transform="translate(-40.989 -54.948)"/>
                        <path id="Path_84829" d="M131.922 91.163q-20.551-.422-41.123-.519a1.017 1.017 0 0 1-1.039-1c0-1.017.022-2.056.022-3.073a1 1 0 0 1 1.061-.974q20.616.195 41.21.758a.994.994 0 0 1 1.017.974c-.022.974-.043 1.948-.087 2.922a1 1 0 0 1-1.061.912z" class="cls-8" transform="translate(11.793 -23.115)"/>
                        <path id="Path_84830" d="M116.653 85.986q-21.914-.422-43.829-.455a1.081 1.081 0 0 1-1.082-1.061c0-1.061-.022-2.1-.022-3.16a1.067 1.067 0 0 1 1.08-1.06q21.947.162 43.915.714A1.044 1.044 0 0 1 117.778 82c-.022 1-.022 1.991-.043 2.987a1.028 1.028 0 0 1-1.082.999z" class="cls-9" transform="translate(-9.212 -29.344)"/>
                        <path id="Path_84831" d="M132.37 81.778q-20.746-1.006-41.491-1.645a1.049 1.049 0 0 1-1.039-1.017c0-1.017.022-2.056.022-3.073a.988.988 0 0 1 1.061-.952q20.778.779 41.578 1.883a1.046 1.046 0 0 1 1.039 1c-.022.974-.043 1.948-.087 2.922a1 1 0 0 1-1.083.882z" class="cls-8" transform="translate(11.886 -35.352)"/>
                        <path id="Path_84832" d="M117 75.89q-22.109-1.039-44.24-1.667a1.153 1.153 0 0 1-1.1-1.1c0-1.061-.022-2.1-.022-3.16a1.036 1.036 0 0 1 1.082-1.039q22.174.779 44.348 1.948a1.111 1.111 0 0 1 1.082 1.061c-.022 1-.022 1.991-.043 2.987a1.017 1.017 0 0 1-1.107.97z" class="cls-9" transform="translate(-9.317 -42.537)"/>
                        <path id="Path_84833" fill="#e6e6e6" d="M153.612 92.47q-40.907-.39-81.792.563c.043 4.329.065 8.679.108 13.008q40.68-1.591 81.4-1.8c.072-3.914.172-7.832.284-11.771z" transform="translate(-9.096 -15.245)"/>
                        <g id="Group_77394" transform="translate(4.978 7.305)">
                            <path id="Path_84431" d="M206.494 70.294q-80.353-6.363-161.03-8.4c-.022-.563-.022-1.1-.043-1.667q80.71 2.143 161.117 8.636c-.023.479-.044.955-.044 1.431z" class="cls-11" transform="translate(-45.42 -60.23)"/>
                        </g>
                        <path id="Path_84888" d="M71.764 143.521l-1.558.059q-.487-41.07-1-82.14l1.6.059q.494 41.011.958 82.022z" class="cls-11" transform="translate(-12.741 -51.516)"/>
                        <path id="Path_84889" d="M90.8 80.632q-21.427-.455-42.855-.606a1.707 1.707 0 0 1-1.645-1.667q-.195-6.818-.368-13.636a1.542 1.542 0 0 1 1.557-1.623q21.557.487 43.093 1.255A1.7 1.7 0 0 1 92.2 66c.065 4.35.108 8.722.173 13.073a1.53 1.53 0 0 1-1.573 1.559z" class="cls-12" transform="translate(-39.848 -49.584)"/>
                        <path id="Path_84890" d="M90.7 98.095q-21.135.325-42.27.952a1.63 1.63 0 0 1-1.623-1.6q-.195-6.818-.368-13.636a1.588 1.588 0 0 1 1.537-1.667q21.265-.292 42.509-.3a1.622 1.622 0 0 1 1.6 1.58c.065 4.35.108 8.722.173 13.073a1.6 1.6 0 0 1-1.558 1.598z" class="cls-12" transform="translate(-39.254 -27.763)"/>
                        <g id="Group_77395" transform="translate(12.488 18.58)">
                            <g id="Group_77220">
                                <path id="Path_84435" d="M48.89 70.555a3.31 3.31 0 0 1 3.355-3.485 3.673 3.673 0 0 1 3.528 3.593" class="cls-13" transform="translate(-48.89 -63.541)"/>
                                <path id="Path_84436" d="M53.548 67.562a1.952 1.952 0 0 1-1.97 2.035 2.16 2.16 0 0 1-2.078-2.122 1.94 1.94 0 0 1 1.97-2.035 2.191 2.191 0 0 1 2.078 2.122z" class="cls-13" transform="translate(-48.179 -65.439)"/>
                            </g>
                            <path id="Path_84437" d="M68.018 67.986q-6.753-.162-13.527-.3a.828.828 0 0 1-.8-.8v-.3a.758.758 0 0 1 .758-.779l13.527.325a.809.809 0 0 1 .779.8v.281a.705.705 0 0 1-.737.773z" class="cls-13" transform="translate(-43.3 -65.019)"/>
                            <path id="Path_84438" d="M76.889 68.681q-11.46-.292-22.921-.5a.24.24 0 0 1-.238-.238v-.087a.222.222 0 0 1 .216-.238q11.46.227 22.921.519a.24.24 0 0 1 .238.238v.087a.233.233 0 0 1-.216.219z" class="cls-13" transform="translate(-43.253 -62.9)"/>
                            <path id="Path_84439" d="M76.887 69.529c-7.64-.195-15.259-.346-22.9-.476a.24.24 0 0 1-.238-.238v-.087a.222.222 0 0 1 .216-.238c7.64.13 15.259.281 22.9.476a.24.24 0 0 1 .238.238v.087a.211.211 0 0 1-.216.238z" class="cls-13" transform="translate(-43.23 -61.887)"/>
                        </g>
                        <g id="Group_77396" transform="translate(13.527 59.14)">
                            <g id="Group_77222">
                                <path id="Path_84440" d="M49.371 89.425a3.4 3.4 0 1 1 6.8-.151" class="cls-13" transform="translate(-49.37 -82.281)"/>
                                <path id="Path_84441" d="M53.964 86.215a2.036 2.036 0 0 1-1.948 2.121A2.064 2.064 0 0 1 49.96 86.3a2 2 0 1 1 4-.087z" class="cls-13" transform="translate(-48.682 -84.179)"/>
                            </g>
                            <path id="Path_84442" d="M68.222 86.191c-4.437.043-8.9.108-13.333.173a.79.79 0 0 1-.779-.779v-.3a.773.773 0 0 1 .736-.8c4.459-.065 8.9-.108 13.354-.152a.79.79 0 0 1 .779.779v.281a.79.79 0 0 1-.757.798z" class="cls-13" transform="translate(-43.85 -84.004)"/>
                            <path id="Path_84443" d="M76.974 86.643q-11.3.13-22.6.325a.24.24 0 0 1-.238-.238v-.087a.222.222 0 0 1 .216-.238q11.3-.195 22.6-.325a.237.237 0 0 1 .238.216v.087a.242.242 0 0 1-.216.26z" class="cls-13" transform="translate(-43.815 -81.966)"/>
                            <path id="Path_84444" d="M76.973 87.491q-11.3.13-22.575.368a.24.24 0 0 1-.238-.238v-.087a.222.222 0 0 1 .216-.238q11.3-.227 22.6-.346a.254.254 0 0 1 .238.216v.087a.24.24 0 0 1-.241.238z" class="cls-13" transform="translate(-43.792 -80.953)"/>
                        </g>
                        <g id="Group_77397" transform="translate(6.666 34.013)">
                            <path id="Path_84445" fill="#acbec5" d="M90.743 89.3q-21.265-.065-42.552.173a1.649 1.649 0 0 1-1.623-1.623q-.195-6.818-.368-13.636a1.569 1.569 0 0 1 1.537-1.645q21.395.1 42.812.476a1.631 1.631 0 0 1 1.6 1.623c.065 4.35.108 8.722.173 13.073a1.6 1.6 0 0 1-1.579 1.559z" transform="translate(-46.2 -72.57)"/>
                            <g id="Group_77225" transform="translate(6.341 4.653)">
                                <g id="Group_77224">
                                    <path id="Path_84446" d="M49.13 79.9a3.387 3.387 0 0 1 3.333-3.55 3.581 3.581 0 0 1 3.506 3.528" class="cls-13" transform="translate(-49.13 -72.822)"/>
                                    <path id="Path_84447" d="M53.756 76.8a1.989 1.989 0 0 1-1.97 2.078A2.1 2.1 0 0 1 49.73 76.8a1.989 1.989 0 0 1 1.97-2.08 2.117 2.117 0 0 1 2.056 2.08z" class="cls-13" transform="translate(-48.431 -74.72)"/>
                                </g>
                                <path id="Path_84448" d="M68.108 76.958q-6.72-.065-13.419-.065a.781.781 0 0 1-.779-.8v-.3a.758.758 0 0 1 .758-.779q6.72.032 13.441.087a.776.776 0 0 1 .779.779v.281a.8.8 0 0 1-.78.797z" class="cls-13" transform="translate(-43.563 -74.382)"/>
                                <path id="Path_84449" d="M76.926 77.489c-7.575-.065-15.172-.087-22.748-.087a.24.24 0 0 1-.238-.238v-.087a.222.222 0 0 1 .216-.238c7.6 0 15.172.043 22.769.108a.24.24 0 0 1 .238.238v.087a.275.275 0 0 1-.237.217z" class="cls-13" transform="translate(-43.528 -72.252)"/>
                                <path id="Path_84450" d="M76.936 78.326q-11.363-.065-22.748-.043a.24.24 0 0 1-.238-.238v-.087a.222.222 0 0 1 .216-.238c7.575 0 15.172.022 22.748.065a.24.24 0 0 1 .238.238v.087a.217.217 0 0 1-.216.216z" class="cls-13" transform="translate(-43.517 -71.227)"/>
                            </g>
                        </g>
                        <g id="Group_77398" transform="translate(7.77 74.032)">
                            <path id="Path_84451" d="M90.647 107.336q-21.005.714-41.967 1.753a1.566 1.566 0 0 1-1.6-1.58q-.195-6.818-.368-13.636a1.637 1.637 0 0 1 1.515-1.71q21.1-.714 42.206-1.1a1.543 1.543 0 0 1 1.58 1.558c.065 4.35.108 8.722.173 13.073a1.623 1.623 0 0 1-1.539 1.642z" class="cls-12" transform="translate(-46.71 -91.06)"/>
                            <g id="Group_77228" transform="translate(6.298 5.411)">
                                <g id="Group_77227" transform="translate(0 .064)">
                                    <path id="Path_84452" d="M49.621 98.9a3.523 3.523 0 0 1 3.29-3.679 3.4 3.4 0 0 1 3.463 3.4" class="cls-13" transform="translate(-49.62 -91.692)"/>
                                    <path id="Path_84453" d="M54.161 95.6a2.087 2.087 0 0 1-1.926 2.164 2 2 0 0 1-2.035-2.009 2.087 2.087 0 0 1 1.926-2.164 2 2 0 0 1 2.035 2.009z" class="cls-13" transform="translate(-48.944 -93.589)"/>
                                </g>
                                <path id="Path_84454" d="M68.345 95.422q-6.623.195-13.246.433a.771.771 0 0 1-.779-.758v-.3a.808.808 0 0 1 .736-.822q6.623-.227 13.246-.411a.771.771 0 0 1 .779.758v.278a.779.779 0 0 1-.736.822z" class="cls-13" transform="translate(-44.146 -93.56)"/>
                                <path id="Path_84455" d="M77.023 95.779c-7.489.216-14.956.476-22.445.758a.236.236 0 0 1-.238-.216v-.087a.222.222 0 0 1 .216-.234c7.489-.281 14.956-.519 22.445-.736a.236.236 0 0 1 .238.216v.087c.022.104-.086.191-.216.212z" class="cls-13" transform="translate(-44.123 -91.58)"/>
                                <path id="Path_84456" d="M77.031 96.651c-7.467.238-14.956.5-22.423.779a.236.236 0 0 1-.238-.216v-.087a.222.222 0 0 1 .216-.238c7.467-.281 14.956-.541 22.423-.779a.236.236 0 0 1 .238.216v.087a.237.237 0 0 1-.216.238z" class="cls-13" transform="translate(-44.088 -90.59)"/>
                            </g>
                        </g>
                    </g>
                </g>
                <path id="Path_84834" d="M135.529 196.681l7.4-47.054-26.447-12.077a26.014 26.014 0 0 0-3.55 8.441 109.552 109.552 0 0 0-2.662 16.926 326.747 326.747 0 0 0-.671 37.336z" class="cls-15" transform="translate(112.534 90.382)"/>
                <g id="Group_77386" transform="translate(128.026 19.293)">
                    <path id="Path_84835" d="M163.826 108.037c.281 5.216-18.917 3.7-18.917 3.7l-12.229-7.554 2.273-3.528-.606-2.078-2.1-7.272-.3.087-.758.26a72.338 72.338 0 0 1-6.948 2.143c-1.342.195-10.562-13.939-10.562-13.939l-2.662-1.039 1.19-11.1-3.247-3.225-1.429-10 1.667-.13 21.666-1.84L146.835 76.7s4.48 11.882 8.2 15.5c3.704 3.673 8.791 15.837 8.791 15.837z" class="cls-16" transform="translate(-17.621 -27.919)"/>
                    <path id="Path_84836" d="M123.888 78.447l-4.069.887-1.039-7.489 4.372-5.476z" class="cls-17" transform="translate(-4.522 -11.792)"/>
                    <path id="Path_84837" d="M179.774 154.085l-5.043 10.3h-36.9l-3.225 6.775-18.787 39.457a133 133 0 0 1-13.787.563c-3.03 0-6-.108-8.961-.3-1.558-.043-3.073-.152-4.588-.26 3.073-10.519 19.047-63.676 30.972-72.464a1 1 0 0 1 .216-.216c5.259-6.147 27.444-7.229 35.669-7.445h.043c1.883-.043 3.008-.043 3.008-.043z" class="cls-15" transform="translate(-39.803 62.821)"/>
                    <path id="Path_84838" d="M144.437 101.96s-.736 14.242-3.117 16.06-45.041 5.952-45.041 5.952-14.307-9.177-18.852-5.952C72.883 121.223 66 128.106 66 128.106h5.281c2.965 0 5.714-2.749 5.714-2.749s2.164 5.5 7.272 5.5h68.265c5.671 0 13.16-25.215 13.16-25.215z" class="cls-16" transform="translate(-65.978 29.648)"/>
                    <path id="Path_84839" d="M72.906 114.67l.26.519a3.557 3.557 0 0 0-.476-.3z" class="cls-16" transform="translate(-58.189 44.447)"/>
                    <path id="Path_84840" d="M165.725 105.648s-.368 1.3-1.039 3.29l-16.493-2.857s-.736 14.22-3.117 16.038c-2.4 1.883-45.041 6-45.041 6s-14.307-9.155-18.9-6a47.746 47.746 0 0 0-4.069 3.29l-.043-.043-.108.108c-.26.216-.476.411-.736.628a8.735 8.735 0 0 1-4.892 2.035h-5.3a128.716 128.716 0 0 1 11.45-10.108c4.524-3.182 18.852 6 18.852 6s42.682-4.156 45.041-6c2.4-1.818 3.117-16.038 3.117-16.038z" class="cls-17" transform="translate(-65.99 29.683)"/>
                    <path id="Path_84841" fill="#ffd26c" d="M211.166 140.013l-7.554 96.662h-41.967l-7.424-6.58a43.553 43.553 0 0 1-14.653-32.552l-13.116-52.465-26.752-5.044s6.861-39.933 13.592-47.378c4.221-4.675 13.592-9.632 19.934-12.64 1.19-.563 2.294-1.1 3.225-1.515h.043c1.883-.887 3.073-1.364 3.073-1.364 8.333 4.329 27.488-3.744 28.83-4.264l.043-.043a57.861 57.861 0 0 1 22.077 8.008c11.017 6.862 20.649 59.175 20.649 59.175z" transform="translate(-26.739 -4.271)"/>
                    <path id="Path_84842" d="M123.31 75.9a18.9 18.9 0 0 1-6.19-.152c1.364-.628 2.186-.931 2.186-.931a11.839 11.839 0 0 0 4.004 1.083z" class="cls-19" transform="translate(-6.455 -1.953)"/>
                    <path id="Path_84843" fill="#ffde9c" d="M126.332 142.75l-26.752-5.043s6.861-39.933 13.592-47.378c4.221-4.675 13.592-9.632 19.934-12.64 1.19-.563 2.294-1.1 3.225-1.515h.043c1.883-.887 3.073-1.364 3.073-1.364a9.268 9.268 0 0 0 3.073.931c-.26.108-.563.26-.887.411h-.043c-.931.411-2.035.931-3.225 1.515-6.342 3.03-15.713 7.965-19.934 12.64-6.71 7.445-13.592 47.378-13.592 47.378l21.492 5.065" transform="translate(-26.878 -1.965)"/>
                    <path id="Path_84844" d="M119.98 78.231c8.636-.822 18.592-5 19.566-5.368l.043-.043a37.908 37.908 0 0 1 3.744.671c-4.09 1.558-15.54 5.736-23.353 4.74z" class="cls-19" transform="translate(-3.125 -4.282)"/>
                    <path id="Path_84845" d="M116.69 83.579l5.259-7.467s15.692-7.662 22.834-7.662l3.939 9.48s-2.38 6.493-32.032 5.649z" class="cls-21" transform="translate(-6.956 -9.371)"/>
                    <path id="Path_84846" d="M125.186 167.117L112.07 114.63l5.259-15.67z" class="cls-21" transform="translate(-12.335 26.155)"/>
                    <path id="Path_84847" d="M124.229 92.794c-.628.108-3.117-3.117-5.519-6.515-.476-.671-.931-1.364-1.45-2.035-1.926-2.922-3.593-5.411-3.593-5.411L111 77.794l1.19-11.082-3.225-3.225-1.45-10 1.667-.108 1.3 9.112 3.809 4.069 1.19 9.632s5.736 3.9 8.116 7.034c2.364 3.053.632 9.568.632 9.568z" class="cls-17" transform="translate(-17.633 -26.918)"/>
                    <path id="Path_84848" d="M114.96 70.137l7.186-1.147c-1.991.368-6.146 1.147-7.186 1.147z" class="cls-16" transform="translate(-8.97 -8.742)"/>
                    <g id="Group_77385" transform="translate(81.083)">
                        <path id="Path_84849" fill="#4d4c4c" d="M156.648 92.68s-4.177 5.021-9.891 3.247l-11.342-12.056-6.6 2.359s-4.913-7.078-5.541-10.043a.5.5 0 0 1-.087-.3c-.39-2.727-4.307-.758-10.909-8.16-5.757-6.428-13.722-13.592-4.87-15.973a26.168 26.168 0 0 1 5.259-.758 23.614 23.614 0 0 0 8.831-2.208.235.235 0 0 0 .108-.022c6.839-3.247 10.822-8.549 18.029-7.467a21.537 21.537 0 0 1 8.246 3.247c16.753 10.127 8.767 48.134 8.767 48.134z" transform="translate(-103.452 -41.154)"/>
                        <path id="Path_84850" d="M121.34 67.871a15.867 15.867 0 0 1-1.3 1.97l-5.281-13.7c11.689.389 8.741 8.051 6.581 11.73z" class="cls-16" transform="translate(-90.286 -23.704)"/>
                        <path id="Path_84851" d="M121.34 67.871c.173-1.71.563-6.385 0-7.359-.173-.26-.281-1.58-1.1-2.186a5.553 5.553 0 0 0-2.749-.736 7.963 7.963 0 0 1-2.727-1.45c11.684.39 8.736 8.052 6.576 11.731z" class="cls-17" transform="translate(-90.286 -23.704)"/>
                    </g>
                    <path id="Path_84852" d="M123.771 68.483a3.272 3.272 0 0 0-.5 2.013.5.5 0 0 1-.087-.3c-.39-2.727-4.307-.758-10.909-8.16-5.757-6.428-13.722-13.592-4.87-15.973-.563.866-.39 2.467.3 5.476 2.322 9.761 17.386 15.061 16.066 16.944z" class="cls-23" transform="translate(-22.369 -35.441)"/>
                    <path id="Path_84853" d="M129.869 41.307c-4.026 1.32-9.783 4.827-18.029 7.467 6.839-3.246 10.822-8.549 18.029-7.467z" class="cls-23" transform="translate(-12.603 -41.142)"/>
                    <path id="Path_84854" fill="#f0fbfe" d="M115.137 66.76l-1.667 3.961c-.476-.671-.931-1.364-1.45-2.035z" transform="translate(-12.393 -11.338)"/>
                    <path id="Path_84855" fill="#29426c" d="M155.316 130.47c-2.338.671-28.592 1.364-35.15 11.341-5.216 7.813-20.648 51.794-27.1 69.022-1.558-.043-3.073-.152-4.588-.26 3.073-10.519 19.047-63.676 30.972-72.464a1 1 0 0 1 .216-.216c5.241-6.124 27.426-7.207 35.65-7.423z" transform="translate(-39.803 62.845)"/>
                </g>
                <g id="Group_77389" transform="translate(202.113 115.514)">
                    <g id="Group_77388" transform="translate(70.494 .021)">
                        <g id="Group_77387" transform="translate(0 .022)">
                            <path id="Path_84856" d="M229.084 88.206v5.627s-.152.476-.476 1.364c-.216.563-.476 1.407-.779 2.4-5.216 15.584-12.056 30.669-18.008 45.993-8.614 22.228-11 46.4-17.12 69.52a15 15 0 0 1-2.727 6.168c-4.567 5.151-26.709 1.71-33.332 1.71H132.79a1.455 1.455 0 0 1 .216-.152c1.623-1.147 6.515-56.75 6.515-56.75l-.26-6.818s21.449-64.8 21.492-64.975c0 0 .628-1.818.628-1.883l1.45-4.264.216-.519 1.45.043s1.667.043 1.71.043l.411.043 59.825 2.344h.368z" class="cls-4" transform="translate(-132.79 -85.63)"/>
                        </g>
                        <path id="Path_84858" d="M216.316 91.5v.216a2.975 2.975 0 0 1-.26 1.407 5.052 5.052 0 0 1-2.446.736c-.216.563-.476 1.407-.779 2.4a3.4 3.4 0 0 1-1.255.216H150.41a4.767 4.767 0 0 1-4.74-4.74v-.215a1.072 1.072 0 0 1 .043-.368v-.216l.628-1.818v-.043a4.7 4.7 0 0 1 1.97-1.775 4.116 4.116 0 0 1 2.078-.519h61.381a3.868 3.868 0 0 1 2.294.736 4.626 4.626 0 0 1 2.252 3.983z" class="cls-6" transform="translate(-117.793 -84.269)"/>
                        <path id="Path_84859" d="M216.984 90.3v.216a4.733 4.733 0 0 1-2.186 3.961 5.052 5.052 0 0 1-2.446.736h-60.905a3.268 3.268 0 0 1-1.255-.216 4.61 4.61 0 0 1-3.441-4.48V90.3a4.834 4.834 0 0 1 .3-1.667 4.559 4.559 0 0 1 3.117-2.814.206.206 0 0 1 .152-.043 3.879 3.879 0 0 1 1.1-.152h60.8a4.7 4.7 0 0 1 4.764 4.676z" class="cls-4" transform="translate(-116.535 -85.62)"/>
                    </g>
                    <path id="Path_84860" d="M177.77 94.383l-19.826 60.343-17.229 64.954-12.229.3-.108-.108a3.78 3.78 0 0 1-1.19-3.593l39.738-127.22a3.955 3.955 0 0 1 2.857-2.446 7.552 7.552 0 0 1 2.294-.3 11.383 11.383 0 0 1 2.857.411c3.745 1.058 3.507 5.322 2.836 7.659z" class="cls-6" transform="translate(-68.944 -84.795)"/>
                    <path id="Path_84861" d="M175.769 92.693l-21.384 61.858-18.463 64.949-7.554.216a3.78 3.78 0 0 1-1.19-3.593l18.7-59.867L166.916 88.9a3.955 3.955 0 0 1 2.857-2.446 2.363 2.363 0 0 1 .368.108c3.766 1.045 6.32 3.794 5.628 6.131z" class="cls-4" transform="translate(-68.956 -84.62)"/>
                    <path id="Path_84862" d="M172.844 142.42h-66.079c-2.446 0-4.415 3.16-4.415 7.078 0 3.9 1.97 7.078 4.415 7.078h59.542a3.889 3.889 0 0 0 3.2-2.208z" class="cls-6" transform="translate(-97.74 -19.461)"/>
                    <path id="Path_84863" d="M170.714 142.42h-66.079c-2.446 0-4.415 3.16-4.415 7.078 0 3.9 1.97 7.078 4.415 7.078h59.542a3.889 3.889 0 0 0 3.2-2.208z" class="cls-6" transform="translate(-100.22 -19.461)"/>
                    <path id="Path_84864" d="M150.191 85.815a.206.206 0 0 1 .152-.043 3.879 3.879 0 0 1 1.1-.152h60.8a4.711 4.711 0 0 1 4.74 4.675v.216a4.733 4.733 0 0 1-2.186 3.961 5.052 5.052 0 0 1-2.446.736h-60.904a3.268 3.268 0 0 1-1.255-.216 4.61 4.61 0 0 1-3.441-4.48V90.3a4.834 4.834 0 0 1 .3-1.667" class="cls-4" transform="translate(-46.041 -85.598)"/>
                    <path id="Path_84865" d="M150.978 96.822h.281a5.505 5.505 0 0 0 5.5-5.5v-.216a5.505 5.505 0 0 0-5.5-5.5h-.281a5.505 5.505 0 0 0-5.5 5.5v.216a5.519 5.519 0 0 0 5.5 5.5z" class="cls-4" transform="translate(-47.52 -85.61)"/>
                </g>
                <g id="Group_77390" transform="translate(269.144 254.316)">
                    <path id="Path_84866" d="M151.414 149.74v32.487c-1.45-.043-2.922-.152-4.372-.26-3.853-.26-7.705-.476-11.515-.671h-.411c-1.3-.043-2.554-.108-3.9-.043v-31.491h20.194z" class="cls-6" transform="translate(-131.155 -149.74)"/>
                    <path id="Rectangle_7768" d="M0 0H20.172V10.692H0z" class="cls-6" transform="translate(0 3.918)"/>
                </g>
                <path id="Path_84867" d="M213.87 159.252h-97.676c-8.826 0-15.974-6.082-15.974-13.592h129.624c0 7.51-7.144 13.592-15.974 13.592z" class="cls-6" transform="translate(101.893 99.825)"/>
                <path id="Rectangle_7769" d="M0 0H82.593V11.298H0z" class="cls-5" transform="rotate(180 53.696 95.55)"/>
                <g id="Group_77391" transform="translate(42.186 168.368)">
                    <path id="Path_84868" d="M99.616 111.156l-.411 1.3.411.584-.628 1.45.476.043v.325l.152.152v.649l-.152.108.152.26v1.515s-.368.325-.152.325c.152 0 0 .974 0 .974h.152v.216l-.368.152.368 1.19v1.017H30.9a3.9 3.9 0 0 1-2.749-1.19 6.013 6.013 0 0 1-1.818-4.48c0-3.182 2.035-5.714 4.588-5.714h68.717v1.125z" class="cls-27" transform="translate(-26.33 -110.03)"/>
                    <path id="Path_84869" d="M99.2 115.993l-.368.433.368.216-.368.325s-.368.325-.152.325c.152 0 0 .974 0 .974h.52l-.368.216-.368.152.368 1.19H31.48a4.634 4.634 0 0 1 0-9.264h67.356l-.411 1.3.411.584-.628 1.45.476.043v.325l.519.541-.368.26-.152.108.152.26z" class="cls-28" transform="translate(-25.55 -109.413)"/>
                    <path id="Path_84870" d="M31.08 112.44h11.8s-3.766 2.078-3.939 4.156-7.861-4.156-7.861-4.156z" class="cls-29" transform="translate(-20.799 -107.224)"/>
                    <path id="Path_84871" d="M60.782 111.3l.411-.26a.8.8 0 0 1-.628.779 1.965 1.965 0 0 1-1.255-.238z" class="cls-29" transform="translate(12.071 -108.854)"/>
                    <path id="Path_84872" d="M59.832 111.96l.779.693h-.931z" class="cls-29" transform="translate(12.502 -107.783)"/>
                    <path id="Path_84873" d="M36.31 111.335s30.561-1.147 44.024 1" class="cls-29" transform="translate(-14.709 -108.868)"/>
                    <path id="Path_84874" d="M33.95 112.695s30.561-1.147 44.024 1" class="cls-29" transform="translate(-17.457 -107.284)"/>
                    <path id="Path_84875" fill="#cc6456" d="M62.086 110.05c-2.662.26-5.151.649-7.489 1.082H32.26a4.657 4.657 0 0 0-2.705 8.311c-.563.325-1.039.584-1.407.8a6.013 6.013 0 0 1-1.818-4.48c0-3.182 2.035-5.714 4.588-5.714z" transform="translate(-26.33 -110.007)"/>
                    <path id="Path_84876" d="M54.1 110.05h6.818c2.814.714 1.407.866-6.818 0z" class="cls-29" transform="translate(6.005 -110.007)"/>
                    <path id="Path_84877" d="M35.85 112.592h9.85a25.107 25.107 0 0 1-2.316-2.532c-.002-.022-5.759 2.597-7.534 2.532z" class="cls-29" transform="translate(-15.245 -109.995)"/>
                </g>
                <g id="Group_77392" transform="translate(42.164 152.763)">
                    <path id="Path_84878" fill="#fcc75b" d="M81.75 105.9l-.325 1.3.325.584-.476 1.45.346.043v.325l.108.151v.649l-.108.108.108.26v1.515s-.281.325-.108.325c.108 0 0 .974 0 .974h.108v.216l-.281.152.281 1.19v1.017H29.783a2.666 2.666 0 0 1-2.078-1.19 7.176 7.176 0 0 1-1.385-4.48c0-3.182 1.537-5.714 3.463-5.714H81.75z" transform="translate(-26.32 -100.549)"/>
                    <path id="Path_84879" d="M81.426 110.733l-.281.433.281.216-.281.325s-.281.325-.108.325c.108 0 0 .974 0 .974h.39l-.281.216-.281.152.281 1.19h-50.93c-1.84 0-3.376-2.1-3.376-4.632 0-2.6 1.537-4.632 3.376-4.632h50.95l-.325 1.3.325.584-.476 1.45.346.043V109l.39.541-.281.26-.108.108.108.26z" class="cls-28" transform="translate(-25.715 -99.932)"/>
                    <path id="Path_84880" d="M37.67 107.18h-9.48l3.16 4.156z" class="cls-29" transform="translate(-24.143 -97.743)"/>
                    <path id="Path_84881" d="M52.4 106.03l.3-.26s0 .649-.476.779a1.242 1.242 0 0 1-.952-.238z" class="cls-29" transform="translate(2.731 -99.385)"/>
                    <path id="Path_84882" d="M51.658 106.7l.584.671h-.692z" class="cls-29" transform="translate(3.057 -98.302)"/>
                    <path id="Path_84883" d="M33.88 106.075s23.116-1.147 33.288 1" class="cls-29" transform="translate(-17.517 -99.387)"/>
                    <path id="Path_84884" d="M32.09 107.425s23.116-1.147 33.288 1" class="cls-29" transform="translate(-19.601 -97.815)"/>
                    <path id="Path_84885" fill="#e8b356" d="M53.363 104.79a51.753 51.753 0 0 0-5.671 1.082H30.81c-1.84 0-3.376 2.056-3.376 4.632a5.306 5.306 0 0 0 1.342 3.679c-.433.325-.779.584-1.061.8a7.176 7.176 0 0 1-1.385-4.48c0-3.182 1.537-5.714 3.463-5.714z" transform="translate(-26.308 -100.526)"/>
                    <path id="Path_84886" d="M29.853 105.68l-.433.541a3.357 3.357 0 0 0 2.078.3c1.58-.087 6.169.022 6.169.022l-5.822-.433" class="cls-29" transform="translate(-22.71 -99.49)"/>
                    <path id="Path_84887" d="M29.629 109.551s-.173.13-.346-3.268c-.173-3.376.238-3.463.238-3.463l1.1 1.8 1.407-1.58s-.563 5.822.411 6.363c.61.343-2.81.148-2.81.148z" class="cls-27" transform="translate(-22.92 -102.82)"/>
                </g>
            </g>
        </g>
    </g>
</svg>
