<svg xmlns="http://www.w3.org/2000/svg" width="400" height="400" viewBox="0 0 400 400">
    <defs>
        <clipPath id="clip-path">
            <path id="Rectangle_7766" fill="none" d="M0 0H400V400H0z" transform="translate(-580 -23955)"/>
        </clipPath>
        <clipPath id="clip-path-2">
            <path id="Path_85078" d="M314.835 267.3c-9.252 44.913-56.351 50.8-94.7 44.744-49.29 4.713-101.268 12.956-144.33-18.668-99.582-52.65-94.2-245.758 47.436-195.126 22.54 7.4 41.044 27.923 63.416 35.156C113.653-134.557 352.01 55.692 314.835 267.3z" transform="translate(-7.977 -1.707)"/>
        </clipPath>
        <clipPath id="clip-path-3">
            <path id="Path_85090" d="M314.835 231.553c-9.252 44.913-56.351 50.8-94.7 44.744-49.286 4.71-101.264 12.952-144.326-18.672-99.582-52.65-94.2-245.758 47.436-195.126 22.54 7.4 41.044 27.923 63.416 35.156C289.6 90.591 332.665 123.56 314.835 231.553z" transform="translate(-7.977 -54.117)"/>
        </clipPath>
        <style>
            .cls-3{fill:#c3e8f6}.cls-7{fill:#fcc85d}.cls-8{fill:#e7b357}.cls-9{fill:#cc997f}.cls-10{fill:#4d4c4c}.cls-11{fill:#e8ac8b}.cls-12{fill:#9e9e9e}.cls-13{fill:#767676}.cls-16{fill:#cbcbcb}.cls-17{fill:#aed8e5}
        </style>
    </defs>
    <g id="Graphic_4" clip-path="url(#clip-path)" transform="translate(580 23955)">
        <g id="Layer_5" transform="translate(-543.281 -23914.172)">
            <path id="Path_85061" d="M314.835 231.553c-9.252 44.913-56.351 50.8-94.7 44.744-49.286 4.71-101.264 12.952-144.326-18.672-99.582-52.65-94.2-245.758 47.436-195.126 22.54 7.4 41.044 27.923 63.416 35.156C289.6 90.591 332.665 123.56 314.835 231.553z" class="cls-3" transform="translate(.462 35.75)"/>
            <g id="Group_77449" transform="translate(8.439 1.707)">
                <g id="Group_77448">
                    <g id="Group_77447" clip-path="url(#clip-path-2)">
                        <path id="Path_85062" fill="#a8a7a7" d="M96.3 180.937l2.019 35.156L133.98 245.7h72.836l10.429-23.045V184.3l-56.015-29.1z" transform="translate(52.27 102.995)"/>
                        <path id="Path_85063" fill="#959494" d="M134.1 187.329v34.651l7.738 23.718h1.514l-7.906-25.4.841-33.979-.841-31.119z" transform="translate(78.054 102.995)"/>
                        <path id="Path_85064" d="M109.678 82.6c8.411-4.71 17.158-8.242 20.858-9.252 3.532-1.009 47.436-3.028 57.192 0s21.531 6.052 26.409 9.252c4.878 3.364 7.065 4.374 11.943 8.915s-8.411 13.962-8.411 17.662 2.187 55.846 1.514 78.555 1.346 51.137 1.514 53.66-120.608 1.682-120.777.336c-.5-2.019.336-5.215 0-8.074s1.177-23.718 2.187-30.446c0 0 3.2-43.4.168-52.314-3.028-8.747-12.111-38.184-10.934-45.586s2.693-11.608 8.244-16.989a28.77 28.77 0 0 1 10.093-5.719z" class="cls-7" transform="translate(48.817 46.071)"/>
                        <path id="Path_85065" d="M166.387 79.091l5.551 78.723 1.514 80.237-8.747 1.009c5.046-17.494 7.4-127.169-4.205-162.661a18.051 18.051 0 0 1 4.037 1.682z" class="cls-8" transform="translate(96.062 49.244)"/>
                        <path id="Path_85066" d="M115.6 77.828c1.514-2.691 5.046-11.1 9.252-11.775 4.374-.5 31.792-.5 35.661 0s8.411 7.065 9.42 11.775-7.57 22.709-15.98 28.428c.5-10.429 1.682-18.5-2.523-15.307-5.551 11.438-9.756 11.438-9.756 11.438s-6.56-1.177-11.438-10.261c-3.869 1.85-1.682 6.729 2.355 14.8-10.43-4.539-21.363-9.926-16.991-29.098z" class="cls-8" transform="translate(64.761 41.928)"/>
                        <path id="Path_85067" d="M121.917 64.175c1.346-8.411 25.4-14.466 33.138-.5.841 16.485 4.71 19.681-5.887 30.278-.841 1.009-6.056 15.139-11.775 15.476-6.392.336-13.121-13.289-14.634-15.307-3.87-7.743-1.347-21.368-.842-29.947z" class="cls-9" transform="translate(68.874 34.891)"/>
                        <path id="Path_85068" d="M170.186 64.441c2.187-3.028 3.028-4.205 3.2-8.915s-1.514-20.354-3.2-22.877-4.205-13.626-12.447-16.149a17.917 17.917 0 0 0-13.962 1.682c-2.355 1.177-6.224 3.7-10.093 3.869s-10.6.841-13.289 4.71-6.056 13.962-6.56 16.821 1.346 11.27 1.514 13.962.673 7.233 1.514 9.252 7.065 11.438 7.065 11.438 17.326 5.383 19.176 5.383 13.793-4.205 15.139-4.878 9.083-6.056 9.083-6.729 2.86-7.569 2.86-7.569z" class="cls-10" transform="translate(64.172 7.879)"/>
                        <path id="Path_85069" d="M120.544 45.077c-.841-.336-8.074-4.71-6.56 5.887.673 4.037 2.187 9.42 7.906 9.42" class="cls-9" transform="translate(64.191 27.075)"/>
                        <path id="Path_85070" d="M146.267 45.077c.841-.336 8.074-4.71 6.56 5.887-.673 4.037-2.187 9.42-7.906 9.42-.168.001-3.532-12.952 1.346-15.307z" class="cls-9" transform="translate(84.558 27.075)"/>
                        <path id="Path_85071" d="M118.179 67.171c.168 3.364 5.551 28.26 22.709 27.755s24.223-18.5 24.559-27.755 1.85-14.971 1.177-16.148-2.691-5.551-2.86-8.074-6.9-8.242-8.411-12.952-11.1-3.364-15.307-1.346-13.793 6.392-16.989 7.065c-3.028.841-.673 5.887-2.355 9.252s-3.869 5.215-4.374 8.579c-.504 3.699 1.851 13.624 1.851 13.624z" class="cls-11" transform="translate(65.883 15.41)"/>
                        <path id="Path_85072" d="M200.5 113.536c1.85 1.85 17.326 21.363 16.148 33.138s-8.074 16.148-13.289 14.8-21.531-20.017-25.4-26.409c-3.696-6.222 19.181-24.557 22.541-21.529z" class="cls-11" transform="translate(107.699 74.346)"/>
                        <path id="Path_85073" d="M187.964 120.8s19.176 12.448 19.681 14.13a52.194 52.194 0 0 1 1.009 5.719l-12.111-4.037-8.579-9.756-3.364-4.374z" class="cls-9" transform="translate(112.501 79.53)"/>
                        <path id="Path_85074" d="M164 78.3c5.551 3.028 12.111 6.56 16.989 13.793 6.729 7.906 13.289 18.84 15.644 22.2s14.13 22.709 14.8 24.054-20.522 23.382-24.391 21.868-18.84-27.923-19.513-33.474C166.86 121.026 164 78.3 164 78.3z" class="cls-7" transform="translate(98.449 50.54)"/>
                        <path id="Path_85075" d="M166 105.4l34.82 25.736s-10.6 7.4-12.111 6.729-15.98-10.261-15.98-10.261l-5.719-10.934z" class="cls-8" transform="translate(99.814 69.025)"/>
                        <path id="Path_85076" d="M224.074 147.166a28.812 28.812 0 0 1-3.7 15.307c-3.364 2.355-17.158 3.7-20.858-.841s-7.906-10.429-12.616-14.8-10.093-11.607-13.289-13.793c-2.86-2.019-15.139-20.522 2.019-22.036 4.542 2.019 10.6 8.411 15.307 10.934s7.738 6.224 10.934 7.906c2.858 2.015 21.866 12.949 22.203 17.323z" class="cls-11" transform="translate(100.278 72.845)"/>
                        <path id="Path_85077" d="M196.046 117.146c-6.9-4.71-15.644-12.111-17.662-12.616a32.435 32.435 0 0 0-8.242-.5c-2.523.168-22.036.673-24.223.841s-11.607 3.364-2.691 5.719c8.915 1.009 26.241-.168 29.437 0-18.335.336-15.812 6.224-4.878 8.915-11.607-4.71-10.429 2.523-2.187 7.233-5.887-4.037-5.215 3.028 2.187 7.233 7.57 4.71 25.9 2.691 28.26 2.691s5.046-9.588 4.205-11.775c-1.01-2.022-4.206-7.741-4.206-7.741z" class="cls-11" transform="translate(81.711 68.045)"/>
                    </g>
                </g>
            </g>
            <g id="Group_77451" transform="translate(7.3 101.95)">
                <g id="Group_77450">
                    <path id="Path_85079" d="M96.678 163.256q-14.887.252-29.774 0c-.168-11.775-.336-23.382-.5-35.156q15.391.252 30.783 0c-.172 11.607-.341 23.382-.509 35.156z" class="cls-12" transform="translate(33.014 -15.734)"/>
                    <path id="Path_85080" d="M97.015 152.483q-15.139.252-30.278 0c-.168-10.261-.336-20.522-.336-30.783 10.261.168 20.69.168 30.951 0-.169 10.261-.337 20.522-.337 30.783z" class="cls-13" transform="translate(33.014 -20.1)"/>
                    <path id="Path_85081" d="M226.649 180.394a836.283 836.283 0 0 1-209.088 0C14.2 140.7 10.664 101 7.3 61.3a920.022 920.022 0 0 0 229.61 0c-3.364 39.53-6.729 79.4-10.261 119.094z" class="cls-12" transform="translate(-7.3 -61.3)"/>
                    <path id="Path_85082" d="M135.79 162.279a807.62 807.62 0 0 1-85.62 0c0-2.187-.168-4.205-.168-6.392-.168-5.046 3.869-8.915 9.252-8.579 22.54 1.009 45.249 1.009 67.79 0 5.215-.168 9.42 3.532 9.083 8.579-.168 2.187-.168 4.374-.337 6.392z" class="cls-13" transform="translate(21.825 -2.646)"/>
                    <path id="Path_85083" fill="#f7fcfd" d="M220.5 175.257a835.7 835.7 0 0 1-200.846 0c-3.03-37.175-6.226-74.182-9.254-111.357a920.047 920.047 0 0 0 219.349 0c-3.196 37.175-6.224 74.182-9.249 111.357z" transform="translate(-5.185 -59.526)"/>
                </g>
            </g>
            <g id="Group_77457" transform="translate(8.439 89.867)">
                <g id="Group_77456">
                    <g id="Group_77455" clip-path="url(#clip-path-3)">
                        <g id="Group_77454" transform="translate(40.241 170.539)">
                            <path id="Path_85084" d="M41 169.125h342.144l.841-13.625H41z" class="cls-12" transform="translate(-25.693 -155.5)"/>
                            <g id="Group_77452" transform="translate(20.017 .505)">
                                <path id="Path_85085" d="M78.119 248.821c-2.019-1.177-3.869-2.019-5.719-3.2-2.019-1.177-3.869-2.355-5.887-3.7l-17.494-73.169L47 159.5l5.046-1.85 4.71-1.85 2.86 13.121z" class="cls-12" transform="translate(-41.617 -155.8)"/>
                                <path id="Path_85086" d="M74.583 245.625c-2.019-1.177-3.869-2.355-5.887-3.7s-3.869-2.691-5.887-4.037l-16.822-69.136-1.009-4.542-.841-3.532-.337-1.178 9.588-3.7.336 1.85 2.355 11.27z" class="cls-16" transform="translate(-43.8 -155.8)"/>
                            </g>
                            <g id="Group_77453" transform="translate(0 3.028)">
                                <path id="Path_85087" d="M48.889 160.323l-1.009 7.233-7.4 47.268c-1.514-1.514-2.86-2.523-4.205-4.037-1.514-1.514-2.86-2.691-4.374-4.205l7.064-48.782 4.71 1.177 3.532.841z" class="cls-16" transform="translate(-31.9 -156.959)"/>
                                <path id="Path_85088" d="M52.162 159.991l-.5 3.2-.673 4.542-8.247 50.967c-1.514-1.346-2.523-2.355-4.037-3.7-1.514-1.514-2.86-2.523-4.205-4.037l7.57-51.809.336-1.85 3.2.841 5.383 1.346z" class="cls-12" transform="translate(-30.126 -157.3)"/>
                            </g>
                        </g>
                        <path id="Path_85089" d="M18.06 169.125h98.068V155.5H11.5z" class="cls-16" transform="translate(-5.574 15.039)"/>
                    </g>
                </g>
            </g>
            <path id="Path_85091" d="M25.2 103.854c0-1.514 0-11.775.168-13.457s1.346-6.56 7.906-9.588 14.634-1.177 18.672 2.86 3.7 7.065 3.7 8.242v11.943h-5.887V91.407c0-3.2-4.542-6.392-9.252-6.224s-8.915 2.691-9.42 6.392c.168 3.532 0 11.438 0 12.28z" class="cls-10" transform="translate(12.21 52.933)"/>
            <path id="Path_85092" d="M32.966 93.9h24.559c2.691 0 5.046 2.691 5.046 6.224v16.148c0 3.364-5.046 12.448-12.448 12.448H34.984c-4.205 0-12.784-5.215-12.784-14.3V99.787c0-1.682 1.514-5.887 5.215-5.887" class="cls-17" transform="translate(10.164 62.887)"/>
            <path id="Path_85093" d="M22.209 100.9c1.514-2.691 2.187-4.71 6.56-4.542 4.878.168 26.073 0 28.428 0s5.383 2.523 5.383 4.878c0-1.514.5-6.056-5.046-7.233H27.255c-1.682-.003-5.383 2.016-5.046 6.897z" class="cls-3" transform="translate(10.155 62.956)"/>
            <path id="Path_85094" d="M33.314 112.8h5.215c0-1.009-.336-2.523-.336-3.2.5-.336 2.019-1.009 2.019-4.037a4.078 4.078 0 0 0-4.205-3.869 4.369 4.369 0 0 0-4.205 4.374c0 2.523 1.85 3.2 2.019 3.7-.171 1.184-.507 3.032-.507 3.032z" class="cls-10" transform="translate(16.712 68.208)"/>
            <g id="Group_77458" transform="translate(96.376 139.546)">
                <path id="Path_85095" d="M103.011 110.816c-2.86 9.42-8.411 19.176-19.176 24.391a3.28 3.28 0 0 1-2.523 0c-10.766-5.719-16.148-14.8-18.672-23.382a55.24 55.24 0 0 1-2.187-19.513 2.557 2.557 0 0 1 2.355-2.523A65.842 65.842 0 0 0 81.48 83.9a3.28 3.28 0 0 1 2.52 0 66.693 66.693 0 0 0 18.672 5.887 2.557 2.557 0 0 1 2.355 2.523c.507 3.872.173 11.105-2.016 18.506z" class="cls-3" transform="translate(-60.209 -83.65)"/>
                <path id="Path_85096" d="M104.066 108.175c-2.86 9.925-8.915 20.354-20.185 25.737a3.28 3.28 0 0 1-2.523 0c-11.27-6.056-16.989-15.644-19.849-24.727a57.023 57.023 0 0 1-1.177-14.971 2.557 2.557 0 0 1 2.355-2.523c7.738-1.009 15.476-4.374 18.672-5.887a3.28 3.28 0 0 1 2.523 0 65.02 65.02 0 0 0 18.672 5.887 2.557 2.557 0 0 1 2.355 2.523 42.151 42.151 0 0 1-.843 13.961z" class="cls-17" transform="translate(-60.255 -82.354)"/>
                <path id="Path_85097" d="M71.251 100.525c1.346 1.346 4.037 4.205 4.542 4.205 1.177 0 1.009-.841 11.1-10.766 1.009-1.009 1.177-.673 1.682-.168l1.346 1.346a1.018 1.018 0 0 1 .168 1.346l-13.623 13.625c-.673.673-1.177.336-1.682-.168l-7.065-7.065c-.673-.673 0-1.009.168-1.346a12.846 12.846 0 0 1 1.514-1.514c1.009-.336 1.177.001 1.85.505z" class="cls-10" transform="translate(-55.363 -77.06)"/>
            </g>
            <path id="Path_85098" d="M143.176 96.863c-6.9-16.317-24.391-10.261-27.419.841-10.257-4.71-17.157 3.869-17.157 10.261s5.215 11.775 10.429 11.943 32.129 0 35.661 0c10.261.5 14.466-8.242 12.784-14.466a11.539 11.539 0 0 0-14.298-8.579z" class="cls-3" transform="translate(62.278 58.074)"/>
            <path id="Path_85099" d="M142.185 97.505c-6.56-15.307-22.877-9.588-25.736.841-9.588-4.374-16.148 3.532-16.148 9.756 0 6.056 4.878 11.1 9.756 11.27s30.278 0 33.474 0c9.756.5 13.457-7.738 11.943-13.457a10.478 10.478 0 0 0-13.289-8.41z" class="cls-17" transform="translate(63.438 58.946)"/>
            <path id="Path_85100" d="M112.132 105.289H108.6l7.738-7.738a.512.512 0 0 1 .673 0l7.4 7.738h-3.7v9.083a2.045 2.045 0 0 1-2.019 2.019h-4.542a2.045 2.045 0 0 1-2.019-2.019z" class="cls-10" transform="translate(69.099 65.292)"/>
            <path id="Path_85101" d="M128.479 110.6a.446.446 0 0 0 .5.5h3.028l-8.074 8.074-7.733-8.074h3.7v-9.083a2.045 2.045 0 0 1 2.019-2.017h4.542a2.045 2.045 0 0 1 2.019 2.019z" class="cls-10" transform="translate(74.283 67.048)"/>
        </g>
    </g>
</svg>
